<svg xmlns="http://www.w3.org/2000/svg" version="1.1" xmlns:xlink="http://www.w3.org/1999/xlink" xmlns:svgjs="http://svgjs.com/svgjs" width="36" height="36"><svg width="36" height="36" viewBox="0 0 36 36" fill="none" xmlns="http://www.w3.org/2000/svg">
<rect width="36" height="36" rx="8" fill="white"></rect>
<path fill-rule="evenodd" clip-rule="evenodd" d="M10 15V25C10 26.1046 10.8954 27 12 27H31C32.1046 27 33 26.1046 33 25V15C33 13.8954 32.1046 13 31 13H12C10.8954 13 10 13.8954 10 15ZM14 15V25H31V15H14Z" fill="#0F2648"></path>
<path d="M16 23.5C16 23.2239 16.2239 23 16.5 23H21.5C21.7761 23 22 23.2239 22 23.5C22 23.7761 21.7761 24 21.5 24H16.5C16.2239 24 16 23.7761 16 23.5Z" fill="#0F2648"></path>
<path d="M23 23.5C23 23.2239 23.2239 23 23.5 23H28.5C28.7761 23 29 23.2239 29 23.5C29 23.7761 28.7761 24 28.5 24H23.5C23.2239 24 23 23.7761 23 23.5Z" fill="#0F2648"></path>
<path d="M3 21V11C3 9.89543 3.89543 9 5 9H24C25.1046 9 26 9.89543 26 11V13H24V11H7V21H10V23H5C3.89543 23 3 22.1046 3 21Z" fill="#0F2648"></path>
</svg><style>@media (prefers-color-scheme: light) { :root { filter: none; } }
</style></svg>